<svg width="162" height="51" viewBox="0 0 162 51" fill="none" xmlns="http://www.w3.org/2000/svg">
<g clip-path="url(#clip0_0_621)">
<path d="M85.1357 13.4659C85.1357 15.2655 83.6741 16.7145 81.8601 16.7145C80.0461 16.7145 78.5855 15.2655 78.5855 13.4659C78.5855 11.6664 79.9963 10.2173 81.8601 10.2173C83.7254 10.2673 85.1357 11.7168 85.1357 13.4659ZM71.6327 20.0141V20.814C71.6327 20.814 70.0714 18.8137 66.746 18.8137C61.2548 18.8137 56.9715 22.9626 56.9715 28.7103C56.9715 34.4086 61.2044 38.6068 66.746 38.6068C70.1217 38.6068 71.6327 36.5576 71.6327 36.5576V37.407C71.6327 37.807 71.9357 38.106 72.3383 38.106H76.4187V19.312H72.3383C71.9357 19.3135 71.6327 19.664 71.6327 20.0141ZM71.6327 32.0592C70.8777 33.1592 69.3657 34.109 67.5523 34.109C64.328 34.109 61.8588 32.1097 61.8588 28.7103C61.8588 25.3114 64.328 23.3121 67.5523 23.3121C69.3159 23.3121 70.928 24.3117 71.6327 25.3613V32.0592ZM79.4422 19.3135H84.2785V38.1075H79.4422V19.3135ZM151.691 18.8132C148.365 18.8132 146.803 20.8135 146.803 20.8135V10.2673H141.967V38.1075H146.048C146.451 38.1075 146.753 37.7575 146.753 37.4075V36.5581C146.753 36.5581 148.315 38.6074 151.64 38.6074C157.132 38.6074 161.414 34.41 161.414 28.7118C161.414 23.0135 157.132 18.8132 151.691 18.8132ZM150.885 34.0585C149.02 34.0585 147.559 33.1098 146.803 32.0093V25.3114C147.559 24.3117 149.171 23.2622 150.885 23.2622C154.109 23.2622 156.578 25.2614 156.578 28.6603C156.578 32.0592 154.109 34.0585 150.885 34.0585ZM139.448 26.9617V38.1575H134.611V27.5109C134.611 24.4126 133.603 23.1623 130.884 23.1623C129.424 23.1623 127.912 23.9123 126.953 25.0123V38.108H122.117V19.314H125.945C126.348 19.314 126.651 19.664 126.651 20.0141V20.814C128.062 19.3639 129.925 18.8137 131.789 18.8137C133.906 18.8137 135.669 19.4144 137.08 20.6138C138.792 22.0134 139.448 23.8124 139.448 26.9617ZM110.377 18.8132C107.052 18.8132 105.49 20.8135 105.49 20.8135V10.2673H100.653V38.1075H104.734C105.137 38.1075 105.44 37.7575 105.44 37.4075V36.5581C105.44 36.5581 107.002 38.6074 110.326 38.6074C115.818 38.6074 120.101 34.41 120.101 28.7118C120.151 23.013 115.869 18.8132 110.377 18.8132ZM109.57 34.0585C107.706 34.0585 106.246 33.1098 105.49 32.0093V25.3114C106.246 24.3117 107.858 23.2622 109.57 23.2622C112.796 23.2622 115.264 25.2614 115.264 28.6603C115.264 32.0592 112.796 34.0585 109.57 34.0585ZM96.4714 18.8132C97.932 18.8132 98.688 19.0638 98.688 19.0638V23.5118C98.688 23.5118 94.6575 22.1621 92.1389 25.0118V38.157H87.3015V19.3135H91.3829C91.786 19.3135 92.0875 19.6635 92.0875 20.0136V20.8135C92.9955 19.7634 94.9605 18.8132 96.4714 18.8132ZM46.2408 36.4079C45.9891 35.8082 45.737 35.1585 45.4853 34.6083C45.0817 33.709 44.6785 32.8587 44.3267 32.0592L44.2763 32.0093C40.7994 24.5115 37.0718 16.9148 33.1414 9.41793L32.9905 9.11732C32.5771 8.33961 32.1742 7.55644 31.782 6.76801C31.2777 5.86773 30.7743 4.91901 29.968 4.01873C28.3559 2.01944 26.0381 0.919434 23.5698 0.919434C21.0502 0.919434 18.7833 2.01945 17.1213 3.91838C16.3654 4.81766 15.8107 5.76738 15.3074 6.66765C14.9142 7.45559 14.5113 8.23875 14.0989 9.01696L13.9474 9.31755C10.0679 16.8144 6.28944 24.4116 2.81302 31.9089L2.7622 32.0083C2.40988 32.8092 2.00621 33.6586 1.60305 34.5573C1.35139 35.1076 1.09973 35.7073 0.848076 36.3569C0.192756 38.2059 -0.00908437 39.9555 0.243581 41.7556C0.797734 45.5045 3.31634 48.6523 6.79326 50.0529C8.10339 50.6031 9.46386 50.8528 10.8742 50.8528C11.2773 50.8528 11.7806 50.8028 12.1843 50.7524C13.8473 50.5527 15.5601 50.0034 17.223 49.0537C19.2886 47.9038 21.2536 46.255 23.4702 43.8558C25.6868 46.255 27.7021 47.9038 29.7174 49.0537C31.3808 50.0034 33.0931 50.5527 34.7556 50.7524C35.1587 50.8033 35.6631 50.8528 36.0662 50.8528C37.477 50.8528 38.8873 50.6031 40.1466 50.0529C43.6739 48.6523 46.1421 45.4546 46.6968 41.7556C47.0969 40.0065 46.8956 38.2578 46.2408 36.4079ZM23.519 39.0068C20.7981 35.6079 19.0345 32.4093 18.4305 29.7109C18.1788 28.561 18.128 27.5613 18.2795 26.6616C18.3796 25.8616 18.6826 25.1616 19.0858 24.5619C20.0431 23.2132 21.6552 22.3629 23.5195 22.3629C25.3843 22.3629 27.0468 23.1628 27.9538 24.5619C28.3569 25.1616 28.6589 25.8621 28.7606 26.6616C28.9111 27.5618 28.8607 28.6109 28.6091 29.7109C28.0026 32.3593 26.239 35.5585 23.519 39.0068ZM43.6205 41.3561C43.2682 43.9551 41.5046 46.2051 39.0363 47.2047C37.8273 47.704 36.5167 47.8543 35.2076 47.704C33.9483 47.5537 32.688 47.1538 31.3788 46.4048C29.5649 45.4041 27.7514 43.8557 25.635 41.5559C28.9599 37.5078 30.9752 33.8084 31.7312 30.5103C32.084 28.9604 32.1348 27.5613 31.9828 26.2611C31.782 25.0118 31.328 23.8618 30.6228 22.8622C29.06 20.6122 26.4398 19.3135 23.5185 19.3135C20.5973 19.3135 17.977 20.6632 16.4152 22.8622C15.71 23.8618 15.256 25.0118 15.0547 26.2611C14.8534 27.5613 14.9032 29.0104 15.3064 30.5103C16.0619 33.8084 18.1275 37.5573 21.4021 41.6058C19.3365 43.9052 17.4722 45.4551 15.6582 46.4547C14.3481 47.2047 13.0893 47.6047 11.83 47.754C10.47 47.9043 9.15936 47.704 8.00072 47.2546C5.53245 46.255 3.76883 44.005 3.4165 41.4061C3.26551 40.1568 3.36567 38.9075 3.86999 37.5078C4.02049 37.0075 4.27315 36.5082 4.52481 35.9085C4.87763 35.1086 5.27979 34.2583 5.68345 33.4089L5.73429 33.3095C9.2102 25.8616 12.9383 18.2644 16.8179 10.8675L16.9688 10.5669C17.3725 9.81788 17.7757 9.01796 18.1783 8.26798C18.5815 7.46806 19.0345 6.71808 19.5891 6.06796C20.6471 4.86958 22.0574 4.21896 23.6197 4.21896C25.182 4.21896 26.5923 4.86958 27.6503 6.06796C28.2049 6.71957 28.6579 7.46956 29.061 8.26798C29.4647 9.01796 29.8679 9.81788 30.27 10.5669L30.4215 10.8675C34.2419 18.2952 37.9205 25.7938 41.4552 33.3595V33.4094C41.8589 34.2103 42.2112 35.1091 42.6144 35.91C42.8661 36.5087 43.1182 37.008 43.2692 37.5084C43.6714 38.8066 43.8224 40.0569 43.6205 41.3561Z" fill="#CFCFDE"/>
</g>
<defs>
<clipPath id="clip0_0_621">
<rect width="161.323" height="49.9333" fill="white" transform="translate(0.112549 0.919922)"/>
</clipPath>
</defs>
</svg>
