<svg width="180" height="180" viewBox="0 0 180 180" fill="none" xmlns="http://www.w3.org/2000/svg">
<g filter="url(#filter0_d_0_562)">
<circle cx="90" cy="74" r="50" fill="#F48C06"/>
</g>
<path d="M78 50C77.0532 50 76.2857 50.7675 76.2857 51.7143V55.1429H79.7142V51.7143C79.7142 50.7675 78.9467 50 78 50Z" fill="#F5F5FC"/>
<path d="M102 50C101.053 50 100.286 50.7675 100.286 51.7143V55.1429H103.714V51.7143C103.714 50.7675 102.947 50 102 50Z" fill="#F5F5FC"/>
<path d="M108.857 55.1428H103.714V62C103.714 62.9468 102.947 63.7143 102 63.7143C101.053 63.7143 100.286 62.9468 100.286 62V55.1428H79.7142V62C79.7142 62.9468 78.9467 63.7143 77.9999 63.7143C77.0531 63.7143 76.2856 62.9468 76.2856 62V55.1428H71.1429C68.3025 55.1428 66 57.4454 66 60.2857V92.8571C66 95.6974 68.3025 98 71.1429 98H108.857C111.697 98 114 95.6974 114 92.8571V60.2857C114 57.4454 111.697 55.1428 108.857 55.1428ZM110.571 92.8571C110.571 93.8039 109.804 94.5714 108.857 94.5714H71.1429C70.196 94.5714 69.4285 93.8039 69.4285 92.8571V70.5714H110.571V92.8571Z" fill="#F5F5FC"/>
<path d="M79.7142 74H76.2857C75.3389 74 74.5714 74.7675 74.5714 75.7143C74.5714 76.6611 75.3389 77.4286 76.2857 77.4286H79.7142C80.661 77.4286 81.4286 76.6611 81.4286 75.7143C81.4286 74.7675 80.661 74 79.7142 74Z" fill="#F5F5FC"/>
<path d="M91.7143 74H88.2857C87.3389 74 86.5714 74.7675 86.5714 75.7143C86.5714 76.6611 87.3389 77.4286 88.2857 77.4286H91.7143C92.6611 77.4286 93.4286 76.6611 93.4286 75.7143C93.4286 74.7675 92.6611 74 91.7143 74Z" fill="#F5F5FC"/>
<path d="M103.714 74H100.286C99.339 74 98.5714 74.7675 98.5714 75.7143C98.5714 76.6611 99.339 77.4286 100.286 77.4286H103.714C104.661 77.4286 105.429 76.6611 105.429 75.7143C105.429 74.7675 104.661 74 103.714 74Z" fill="#F5F5FC"/>
<path d="M79.7142 80.8572H76.2857C75.3389 80.8572 74.5714 81.6247 74.5714 82.5715C74.5714 83.5183 75.3389 84.2858 76.2857 84.2858H79.7142C80.661 84.2858 81.4286 83.5183 81.4286 82.5715C81.4286 81.6247 80.661 80.8572 79.7142 80.8572Z" fill="#F5F5FC"/>
<path d="M91.7143 80.8572H88.2857C87.3389 80.8572 86.5714 81.6247 86.5714 82.5715C86.5714 83.5183 87.3389 84.2858 88.2857 84.2858H91.7143C92.6611 84.2858 93.4286 83.5183 93.4286 82.5715C93.4286 81.6247 92.6611 80.8572 91.7143 80.8572Z" fill="#F5F5FC"/>
<path d="M103.714 80.8572H100.286C99.339 80.8572 98.5714 81.6247 98.5714 82.5715C98.5714 83.5183 99.339 84.2858 100.286 84.2858H103.714C104.661 84.2858 105.429 83.5183 105.429 82.5715C105.429 81.6247 104.661 80.8572 103.714 80.8572Z" fill="#F5F5FC"/>
<path d="M79.7142 87.7141H76.2857C75.3389 87.7141 74.5714 88.4816 74.5714 89.4284C74.5714 90.3752 75.3389 91.1426 76.2857 91.1426H79.7142C80.661 91.1426 81.4286 90.3751 81.4286 89.4283C81.4286 88.4815 80.661 87.7141 79.7142 87.7141Z" fill="#F5F5FC"/>
<path d="M91.7143 87.7141H88.2857C87.3389 87.7141 86.5714 88.4816 86.5714 89.4284C86.5714 90.3752 87.3389 91.1427 88.2857 91.1427H91.7143C92.6611 91.1427 93.4286 90.3752 93.4286 89.4284C93.4286 88.4816 92.6611 87.7141 91.7143 87.7141Z" fill="#F5F5FC"/>
<path d="M103.714 87.7141H100.286C99.339 87.7141 98.5714 88.4816 98.5714 89.4284C98.5714 90.3752 99.339 91.1427 100.286 91.1427H103.714C104.661 91.1427 105.429 90.3752 105.429 89.4284C105.429 88.4816 104.661 87.7141 103.714 87.7141Z" fill="#F5F5FC"/>
<defs>
<filter id="filter0_d_0_562" x="0" y="0" width="180" height="180" filterUnits="userSpaceOnUse" color-interpolation-filters="sRGB">
<feFlood flood-opacity="0" result="BackgroundImageFix"/>
<feColorMatrix in="SourceAlpha" type="matrix" values="0 0 0 0 0 0 0 0 0 0 0 0 0 0 0 0 0 0 127 0" result="hardAlpha"/>
<feOffset dy="16"/>
<feGaussianBlur stdDeviation="20"/>
<feColorMatrix type="matrix" values="0 0 0 0 0.146118 0 0 0 0 0.172389 0 0 0 0 0.441667 0 0 0 0.1 0"/>
<feBlend mode="normal" in2="BackgroundImageFix" result="effect1_dropShadow_0_562"/>
<feBlend mode="normal" in="SourceGraphic" in2="effect1_dropShadow_0_562" result="shape"/>
</filter>
</defs>
</svg>
