<svg width="58" height="58" viewBox="0 0 58 58" fill="none" xmlns="http://www.w3.org/2000/svg">
<g filter="url(#filter0_d_0_671)">
<rect x="4" width="50" height="50" rx="8" fill="#23BDEE"/>
<g clip-path="url(#clip0_0_671)">
<path d="M22.125 11.25C21.5826 11.25 21.1429 11.6897 21.1429 12.2322V14.1964H23.1071V12.2322C23.1071 11.6897 22.6674 11.25 22.125 11.25Z" fill="white"/>
<path d="M35.875 11.25C35.3325 11.25 34.8928 11.6897 34.8928 12.2322V14.1964H36.8571V12.2322C36.8571 11.6897 36.4174 11.25 35.875 11.25Z" fill="white"/>
<path d="M39.8036 14.1963H36.8571V18.1249C36.8571 18.6673 36.4174 19.107 35.875 19.107C35.3325 19.107 34.8928 18.6673 34.8928 18.1249V14.1963H23.1071V18.1249C23.1071 18.6673 22.6674 19.107 22.1249 19.107C21.5825 19.107 21.1428 18.6673 21.1428 18.1249V14.1963H18.1964C16.5692 14.1963 15.25 15.5154 15.25 17.1427V35.8034C15.25 37.4307 16.5692 38.7499 18.1964 38.7499H39.8036C41.4308 38.7499 42.75 37.4307 42.75 35.8034V17.1427C42.75 15.5154 41.4308 14.1963 39.8036 14.1963ZM40.7857 35.8034C40.7857 36.3459 40.3459 36.7856 39.8035 36.7856H18.1964C17.654 36.7856 17.2143 36.3459 17.2143 35.8034V23.0356H40.7857V35.8034Z" fill="white"/>
<path d="M23.1071 25H21.1428C20.6004 25 20.1607 25.4397 20.1607 25.9822C20.1607 26.5246 20.6004 26.9643 21.1428 26.9643H23.1071C23.6496 26.9643 24.0893 26.5246 24.0893 25.9822C24.0893 25.4397 23.6496 25 23.1071 25Z" fill="white"/>
<path d="M29.9821 25H28.0179C27.4754 25 27.0357 25.4397 27.0357 25.9822C27.0357 26.5246 27.4754 26.9643 28.0179 26.9643H29.9821C30.5246 26.9643 30.9643 26.5246 30.9643 25.9822C30.9643 25.4397 30.5246 25 29.9821 25Z" fill="white"/>
<path d="M36.8572 25H34.8929C34.3505 25 33.9107 25.4397 33.9107 25.9822C33.9107 26.5246 34.3505 26.9643 34.8929 26.9643H36.8572C37.3996 26.9643 37.8393 26.5246 37.8393 25.9822C37.8393 25.4397 37.3995 25 36.8572 25Z" fill="white"/>
<path d="M23.1071 28.9287H21.1428C20.6004 28.9287 20.1607 29.3684 20.1607 29.9109C20.1607 30.4533 20.6004 30.893 21.1428 30.893H23.1071C23.6496 30.893 24.0893 30.4533 24.0893 29.9109C24.0893 29.3684 23.6496 28.9287 23.1071 28.9287Z" fill="white"/>
<path d="M29.9821 28.9287H28.0179C27.4754 28.9287 27.0357 29.3684 27.0357 29.9109C27.0357 30.4533 27.4754 30.893 28.0179 30.893H29.9821C30.5246 30.893 30.9643 30.4533 30.9643 29.9109C30.9643 29.3684 30.5246 28.9287 29.9821 28.9287Z" fill="white"/>
<path d="M36.8572 28.9287H34.8929C34.3505 28.9287 33.9107 29.3684 33.9107 29.9109C33.9107 30.4533 34.3505 30.893 34.8929 30.893H36.8572C37.3996 30.893 37.8393 30.4533 37.8393 29.9109C37.8393 29.3684 37.3995 28.9287 36.8572 28.9287Z" fill="white"/>
<path d="M23.1071 32.8569H21.1428C20.6004 32.8569 20.1607 33.2967 20.1607 33.8391C20.1607 34.3815 20.6004 34.8212 21.1428 34.8212H23.1071C23.6496 34.8212 24.0893 34.3815 24.0893 33.839C24.0893 33.2966 23.6496 32.8569 23.1071 32.8569Z" fill="white"/>
<path d="M29.9821 32.8569H28.0179C27.4754 32.8569 27.0357 33.2967 27.0357 33.8391C27.0357 34.3815 27.4754 34.8213 28.0179 34.8213H29.9821C30.5246 34.8213 30.9643 34.3815 30.9643 33.8391C30.9643 33.2967 30.5246 32.8569 29.9821 32.8569Z" fill="white"/>
<path d="M36.8572 32.8569H34.8929C34.3505 32.8569 33.9107 33.2967 33.9107 33.8391C33.9107 34.3815 34.3505 34.8213 34.8929 34.8213H36.8572C37.3996 34.8213 37.8393 34.3815 37.8393 33.8391C37.8393 33.2967 37.3995 32.8569 36.8572 32.8569Z" fill="white"/>
</g>
</g>
<defs>
<filter id="filter0_d_0_671" x="0" y="0" width="58" height="58" filterUnits="userSpaceOnUse" color-interpolation-filters="sRGB">
<feFlood flood-opacity="0" result="BackgroundImageFix"/>
<feColorMatrix in="SourceAlpha" type="matrix" values="0 0 0 0 0 0 0 0 0 0 0 0 0 0 0 0 0 0 127 0" result="hardAlpha"/>
<feOffset dy="4"/>
<feGaussianBlur stdDeviation="2"/>
<feComposite in2="hardAlpha" operator="out"/>
<feColorMatrix type="matrix" values="0 0 0 0 0 0 0 0 0 0 0 0 0 0 0 0 0 0 0.25 0"/>
<feBlend mode="normal" in2="BackgroundImageFix" result="effect1_dropShadow_0_671"/>
<feBlend mode="normal" in="SourceGraphic" in2="effect1_dropShadow_0_671" result="shape"/>
</filter>
<clipPath id="clip0_0_671">
<rect width="27.5" height="27.5" fill="white" transform="translate(15.25 11.25)"/>
</clipPath>
</defs>
</svg>
