<svg width="194" height="40" viewBox="0 0 194 40" fill="none" xmlns="http://www.w3.org/2000/svg">
<path d="M100.101 19.3434C98.5045 19.3434 97.3536 19.8689 96.1865 20.4042V32.5178C97.3044 32.6247 97.9452 32.6247 99.0057 32.6247C102.838 32.6247 103.363 30.8632 103.363 28.4039V22.6184C103.363 20.8021 102.763 19.3434 100.101 19.3434ZM74.6492 18.6823C71.9902 18.6823 71.3834 20.1473 71.3834 21.9618V22.9812H77.9115V21.9618C77.9115 20.1473 77.3047 18.6823 74.6492 18.6823ZM25.3437 31.2908C25.3437 32.7262 26.0186 33.4717 27.5078 33.4717C29.1054 33.4717 30.0514 32.9489 31.2176 32.4118V29.5383H27.7244C26.0705 29.5383 25.3437 29.8473 25.3437 31.2908ZM124.86 19.3434C122.196 19.3434 121.273 20.8021 121.273 22.6184V29.2464C121.273 31.0671 122.196 32.5304 124.86 32.5304C127.516 32.5304 128.446 31.0671 128.446 29.2464V22.6184C128.445 20.8021 127.515 19.3434 124.86 19.3434ZM12.2911 38.7228H4.4616V19.7036H0.549561V13.1501H4.4625V9.21402C4.4625 3.86684 6.67046 0.687988 12.9462 0.687988H18.1712V7.2433H14.9053C12.462 7.2433 12.3009 8.15949 12.3009 9.86883L12.2911 13.1492H18.207L17.5152 19.7027H12.2911V38.7228ZM39.0488 38.7722H32.5234L32.2415 37.1158C29.262 38.7722 26.603 39.0408 24.8488 39.0408C20.0632 39.0408 17.5161 35.8323 17.5161 31.395C17.5161 26.1601 20.4884 24.2918 25.8055 24.2918H31.2176V23.16C31.2176 20.4877 30.9124 19.7036 26.8178 19.7036H20.1232L20.7774 13.1501H28.095C37.079 13.1501 39.0488 15.9984 39.0488 23.213V38.7722ZM61.2386 20.1841C57.178 19.4853 56.0118 19.3317 54.058 19.3317C50.5487 19.3317 49.4881 20.1087 49.4881 23.0998V28.7578C49.4881 31.7489 50.5487 32.5295 54.058 32.5295C56.0118 32.5295 57.178 32.3732 61.2386 31.6717V38.0644C57.6818 38.8647 55.3647 39.0749 53.4064 39.0749C45.0006 39.0749 41.6596 34.6385 41.6596 28.2296V23.6388C41.6596 17.2245 45.0006 12.78 53.4064 12.78C55.3647 12.78 57.6818 12.9911 61.2386 13.795V20.1841ZM85.7401 28.2296H71.3825V28.7578C71.3825 31.7489 72.444 32.5295 75.9524 32.5295C79.1063 32.5295 81.0315 32.3732 85.0849 31.6717V38.0644C81.1756 38.8647 79.1385 39.0749 75.3035 39.0749C66.8968 39.0749 63.5539 34.6385 63.5539 28.2296V22.9803C63.5539 17.3727 66.034 12.78 74.6483 12.78C83.2627 12.78 85.7401 17.3197 85.7401 22.9803V28.2296ZM111.191 28.3509C111.191 34.5451 109.427 39.0632 98.7408 39.0632C94.8816 39.0632 92.6181 38.7228 88.3588 38.0653V2.65692L96.1856 1.34639V13.7321C97.8771 13.1016 100.066 12.7809 102.059 12.7809C109.886 12.7809 111.19 16.3029 111.19 21.9626V28.3509H111.191ZM136.281 28.4856C136.281 33.8292 134.083 39.012 124.886 39.012C115.684 39.012 113.445 33.8292 113.445 28.4856V23.3262C113.445 17.9799 115.684 12.7962 124.886 12.7962C134.083 12.7962 136.281 17.9799 136.281 23.3262V28.4856ZM161.353 28.4856C161.353 33.8292 159.152 39.012 149.957 39.012C140.756 39.012 138.516 33.8292 138.516 28.4856V23.3262C138.516 17.9799 140.756 12.7962 149.957 12.7962C159.152 12.7962 161.353 17.9799 161.353 23.3262V28.4856ZM187.084 38.7228H178.6L171.425 26.7017V38.7228H163.595V2.65602L171.425 1.3455V24.5639L178.6 13.1501H187.084L179.25 25.6059L187.084 38.7228ZM149.93 19.3434C147.271 19.3434 146.349 20.8021 146.349 22.6184V29.2464C146.349 31.0671 147.271 32.5304 149.93 32.5304C152.586 32.5304 153.526 31.0671 153.526 29.2464V22.6184C153.526 20.8021 152.586 19.3434 149.93 19.3434ZM191.552 34.237C192.871 34.237 193.92 35.3158 193.92 36.6631C193.92 38.0311 192.87 39.0982 191.542 39.0982C190.221 39.0982 189.15 38.0311 189.15 36.6631C189.15 35.3158 190.221 34.237 191.542 34.237H191.552ZM191.542 34.6143C190.48 34.6143 189.611 35.5314 189.611 36.6631C189.611 37.8156 190.481 38.721 191.552 38.721C192.624 38.7318 193.481 37.8156 193.481 36.6739C193.481 35.5323 192.624 34.6143 191.552 34.6143H191.542ZM191.092 38.0752H190.663V35.3679C190.888 35.3364 191.103 35.305 191.425 35.305C191.833 35.305 192.1 35.3912 192.264 35.5089C192.422 35.6284 192.507 35.8107 192.507 36.0685C192.507 36.426 192.273 36.6407 191.984 36.7278V36.7485C192.219 36.7925 192.379 37.0063 192.434 37.4042C192.496 37.8255 192.562 37.9862 192.604 38.0743H192.154C192.09 37.9862 192.025 37.7392 191.971 37.3826C191.908 37.0386 191.735 36.9093 191.391 36.9093H191.093V38.0752H191.092ZM191.092 36.5769H191.404C191.756 36.5769 192.056 36.4467 192.056 36.1116C192.056 35.8745 191.886 35.6382 191.404 35.6382C191.263 35.6382 191.166 35.649 191.092 35.6589V36.5769Z" fill="#CFCFDE"/>
</svg>
