<svg width="169" height="56" viewBox="0 0 169 56" fill="none" xmlns="http://www.w3.org/2000/svg">
<g clip-path="url(#clip0_0_612)">
<path d="M20.7271 0.925781H22.2237C27.4197 1.03825 32.5309 3.11896 36.2019 6.80237C34.8465 8.18014 33.4628 9.50167 32.1355 10.8794C30.0741 9.02367 27.5891 7.58967 24.8782 7.08355C20.8683 6.24002 16.5477 6.9992 13.1873 9.27673C9.51626 11.6667 7.03124 15.7157 6.49471 20.0458C5.90169 24.3197 7.11596 28.8185 9.9116 32.1364C12.5943 35.3699 16.6889 37.3944 20.9247 37.535C24.8782 37.7599 29.001 36.5509 31.8814 33.7953C34.1405 31.8552 35.1853 28.9029 35.5242 26.0349C30.8365 26.0349 26.1489 26.063 21.4613 26.0349V20.2426H41.2002C42.2168 26.4566 40.7484 33.4579 36.0042 37.9005C32.8415 41.0497 28.4645 42.9055 24.0028 43.271C19.6822 43.6928 15.2205 42.8773 11.38 40.7966C6.7771 38.3504 3.10605 34.2171 1.29877 29.3527C-0.395559 24.882 -0.423798 19.8209 1.15757 15.322C2.59775 11.2168 5.36516 7.58967 8.92324 5.05908C12.3401 2.55661 16.4912 1.17884 20.7271 0.925781Z" fill="#CFCFDE"/>
<path d="M133.965 2.38672H140.008V42.5388C138.003 42.5388 135.97 42.5669 133.965 42.5106C133.993 29.1547 133.965 15.7707 133.965 2.38672Z" fill="#CFCFDE"/>
<path d="M54.6421 16.3051C58.3696 15.6021 62.4077 16.3894 65.4858 18.6107C68.2814 20.579 70.2299 23.6719 70.8229 27.046C71.5853 30.9544 70.6252 35.2283 68.0837 38.3212C65.3446 41.7797 60.8546 43.6355 56.4776 43.3543C52.4677 43.1293 48.5707 41.133 46.1987 37.8713C43.516 34.2723 42.8665 29.3236 44.3349 25.1059C45.8033 20.579 49.9544 17.1205 54.6421 16.3051ZM55.4892 21.6474C53.9643 22.0411 52.5524 22.9127 51.5358 24.1499C48.7966 27.4116 48.9661 32.7258 51.9876 35.7625C53.7102 37.5058 56.3081 38.3212 58.7084 37.8432C60.9393 37.4496 62.8878 35.9593 63.9609 33.9911C65.8246 30.6451 65.2881 26.0338 62.436 23.4189C60.6004 21.7318 57.9178 21.0289 55.4892 21.6474Z" fill="#CFCFDE"/>
<path d="M84.5752 16.3052C88.8392 15.4898 93.4986 16.6707 96.6896 19.6512C101.886 24.2906 102.45 32.979 98.0168 38.3213C95.3342 41.6955 90.9854 43.5512 86.6931 43.3544C82.5985 43.2419 78.5603 41.2175 76.1318 37.8715C73.3926 34.188 72.7996 29.1269 74.3527 24.8249C75.9059 20.4385 79.9723 17.0925 84.5752 16.3052ZM85.4223 21.6476C83.8975 22.0412 82.4855 22.9129 81.4689 24.1219C78.758 27.3273 78.871 32.5572 81.7795 35.622C83.5021 37.4497 86.1848 38.3495 88.6698 37.8433C90.8724 37.4216 92.8491 35.9595 93.9222 33.9912C95.7577 30.6171 95.2212 26.0058 92.3408 23.3909C90.5053 21.7038 87.8226 21.029 85.4223 21.6476Z" fill="#CFCFDE"/>
<path d="M109.962 17.9359C113.209 15.9115 117.53 15.3491 121.031 17.0924C122.133 17.5704 123.036 18.3858 123.912 19.2012C123.94 18.442 123.912 17.6548 123.94 16.8675C125.832 16.8956 127.724 16.8675 129.644 16.8956V41.6953C129.616 45.435 128.656 49.3996 125.945 52.127C122.98 55.1356 118.433 56.0635 114.339 55.4449C109.962 54.7982 106.15 51.6209 104.455 47.6001C106.15 46.7846 107.929 46.1379 109.679 45.3788C110.668 47.6844 112.673 49.6526 115.186 50.1025C117.699 50.5524 120.608 49.9338 122.246 47.8531C123.997 45.7162 123.997 42.7919 123.912 40.177C122.613 41.4423 121.116 42.567 119.309 42.9888C115.384 44.0854 111.063 42.7357 108.042 40.0926C104.992 37.4496 103.185 33.3725 103.354 29.3236C103.439 24.7404 106.037 20.3259 109.962 17.9359ZM115.807 21.535C114.085 21.8162 112.475 22.7722 111.374 24.0937C108.719 27.2429 108.719 32.2759 111.402 35.3689C112.927 37.1965 115.384 38.2088 117.756 37.9557C119.987 37.7308 122.048 36.3249 123.149 34.3848C125.013 31.095 124.703 26.6243 122.189 23.7563C120.636 21.9849 118.151 21.1132 115.807 21.535Z" fill="#CFCFDE"/>
<path d="M147.265 19.3699C150.654 16.2207 155.878 15.1523 160.227 16.8112C164.35 18.3577 166.976 22.266 168.303 26.2869C162.175 28.8174 156.076 31.3199 149.948 33.8505C150.795 35.4532 152.094 36.9153 153.845 37.5058C156.302 38.3775 159.239 38.0682 161.3 36.4373C162.119 35.8188 162.768 35.0033 163.39 34.216C164.943 35.2564 166.496 36.2686 168.049 37.309C165.847 40.5988 162.147 42.9044 158.166 43.2699C153.76 43.8042 149.073 42.1171 146.221 38.6868C141.533 33.2882 141.985 24.2343 147.265 19.3699ZM150.287 24.5717C149.327 25.9494 148.931 27.6365 148.96 29.2954C153.054 27.6084 157.149 25.9213 161.244 24.2061C160.566 22.6316 158.928 21.6756 157.262 21.4225C154.579 20.9445 151.784 22.3785 150.287 24.5717Z" fill="#CFCFDE"/>
</g>
<defs>
<clipPath id="clip0_0_612">
<rect width="168.303" height="54.6985" fill="white" transform="translate(0 0.919922)"/>
</clipPath>
</defs>
</svg>
