<svg width="132" height="52" viewBox="0 0 132 52" fill="none" xmlns="http://www.w3.org/2000/svg">
<path d="M104.461 16.833V0.931152H107.705V14.6007C106.807 15.0522 105.584 15.905 104.461 16.833ZM98.82 21.6236C99.8184 20.4197 100.842 19.2158 102.065 18.1874V0.931152H98.82V21.6236ZM61.232 34.2648C61.232 38.5036 62.9043 42.5418 65.9742 45.6268C69.0192 48.6868 73.0376 50.3924 77.2806 50.3924C79.0776 50.3924 80.9245 50.0162 82.2224 49.364V46.1034C80.6999 46.7555 78.853 47.1318 77.2806 47.1318C70.342 47.1318 64.5016 41.2626 64.5016 34.2899V31.3553C64.5016 24.3826 70.367 18.5135 77.2806 18.5135C80.7249 18.5135 83.9446 19.8428 86.3406 22.2506C88.7367 24.6585 90.0595 27.894 90.0595 31.3553V50.4175H93.3041V30.7283C93.1045 26.5647 91.3324 22.677 88.3373 19.7676C85.3173 16.8581 81.3988 15.2528 77.2806 15.2528C73.0625 15.2528 69.0441 16.9333 65.9742 20.0184C62.9292 23.0783 61.232 27.1165 61.232 31.3804V34.2648ZM109.802 26.4393C111.275 24.9595 113.171 24.1318 115.043 24.1318C119.062 24.1318 122.182 27.2921 122.182 31.3052V34.2397C122.182 38.2779 119.037 41.4131 115.043 41.4131C113.097 41.4131 111.225 40.3346 109.752 38.4033C108.454 36.6977 107.606 34.3651 107.481 32.2834L104.86 35.544C105.384 38.002 106.657 40.3848 108.479 42.0402C110.351 43.7457 112.697 44.6988 115.043 44.6988C120.784 44.6988 125.451 40.0085 125.451 34.2648V31.3302C125.451 28.5963 124.353 25.9878 122.356 24.0064C120.36 21.9998 117.764 20.8962 115.043 20.8962C113.321 20.8962 110.601 21.5233 107.356 24.4578C106.482 25.3357 104.436 27.3924 103.188 28.8472C101.091 31.1547 98.0713 34.5909 95.4756 38.0772V43.1688C98.3458 39.4567 99.9931 37.375 102.714 34.2397C105.11 31.3804 108.105 27.9442 109.802 26.4393ZM33.1283 20.2943V16.4317C30.1832 14.8515 26.9885 14.1492 22.7454 14.1492C18.4026 14.1492 14.2844 15.7545 11.1645 18.6389C8.01972 21.5484 6.29756 25.3608 6.29756 29.424V30.4775C6.29756 38.9049 13.0115 45.7523 21.2978 45.7523C28.0118 45.7523 30.7822 43.5451 31.4811 42.8428V33.0358H20.4992V36.2964H28.4361V41.2125H28.4111C27.3878 41.6138 25.2663 42.4665 21.2978 42.4665C18.153 42.4665 15.1829 41.2375 12.9865 38.9802C10.7652 36.7228 9.56717 33.713 9.56717 30.4524V29.3989C9.56717 22.9028 15.6072 17.3848 22.7704 17.3848C27.6873 17.4099 30.6325 18.2376 33.1283 20.2943ZM56.7893 24.1318C58.0123 24.1318 59.0606 24.3324 59.9092 24.7337C60.3085 23.7305 60.7328 22.8777 61.3318 21.8744C60.4583 21.2474 58.3368 20.8461 56.7893 20.8461C50.8741 20.8461 46.4064 25.3357 46.4064 31.3052V50.3673H49.6511V31.3052C49.6511 27.0914 52.5713 24.1318 56.7893 24.1318ZM0.65686 29.424V30.4775C0.65686 36.1459 2.80332 41.4131 6.67195 45.351C10.5406 49.2637 15.732 51.4207 21.2729 51.4207C25.7405 51.4207 29.684 50.4175 33.0285 48.4109C35.774 46.7555 36.997 45.1001 37.0968 44.9496V27.3924H20.4992V30.653H33.8521V43.9715C32.2797 45.5516 28.5609 48.1852 21.2978 48.1852C16.5557 48.1852 12.1629 46.3542 8.91824 43.0434C5.69855 39.7577 3.92647 35.2932 3.92647 30.5025V29.4491C3.92647 24.9093 5.94814 20.3946 9.4923 17.0587C13.1113 13.6476 17.8286 11.7665 22.7704 11.7665C27.3878 11.7665 30.5825 12.4688 33.1533 14.0489V10.3619C30.4577 9.20813 27.238 8.7065 22.7454 8.7065C10.7652 8.7065 0.65686 18.1874 0.65686 29.424ZM87.6385 50.3673V31.3052C87.6385 25.436 83.071 20.8461 77.2306 20.8461C74.5101 20.8461 71.9144 21.9497 69.9177 23.9562C67.921 25.9627 66.8228 28.5713 66.8228 31.2801V34.2146C66.8228 39.8831 71.5899 44.6487 77.2057 44.6487C78.7531 44.6487 80.8497 44.2724 82.1475 43.1939V39.8079C80.8746 40.8362 79.0526 41.4382 77.2057 41.4382C73.2123 41.4382 70.0674 38.2779 70.0674 34.2648V31.3302C70.0674 27.2921 73.2123 24.1569 77.2057 24.1569C81.2241 24.1569 84.3439 27.3172 84.3439 31.3302V50.3924H87.6385V50.3673ZM56.7893 18.4633C58.9857 18.4633 60.9075 18.9399 62.6297 19.918C63.4284 18.8897 64.252 18.0871 64.876 17.46C63.054 16.0555 59.9591 15.2027 56.8143 15.2027C52.2967 15.2027 48.2035 16.833 45.2833 19.8177C42.3881 22.7523 40.7907 26.8406 40.7907 31.3302V50.3924H44.0354V31.3302C44.0104 23.7556 49.2518 18.4633 56.7893 18.4633ZM126.35 19.9682C123.305 16.9082 119.286 15.2027 115.043 15.2027C111.948 15.2027 108.854 16.3564 107.131 17.5102C103.587 19.8679 100.692 22.4513 95.4506 29.2485V34.1394C99.8933 28.3204 104.086 23.7556 107.281 21.2223C109.378 19.5418 112.348 18.4884 115.043 18.4884C121.982 18.4884 127.822 24.3826 127.822 31.3302V34.2648C127.822 37.701 126.474 40.9366 124.028 43.3695C121.607 45.7773 118.413 47.1067 115.043 47.1067C109.353 47.1067 104.336 43.1688 102.988 37.8264L100.692 40.6105C102.364 46.2288 108.404 50.3673 115.043 50.3673C119.286 50.3673 123.28 48.6617 126.35 45.6018C129.395 42.5167 131.092 38.5036 131.092 34.2397V31.3052C131.092 27.0663 129.395 23.0282 126.35 19.9682Z" fill="#CFCFDE"/>
</svg>
