<svg width="152" height="41" viewBox="0 0 152 41" fill="none" xmlns="http://www.w3.org/2000/svg">
<path d="M143.28 19.521L151.376 40.8139C148.99 40.4754 146.606 40.0514 144.178 39.6694L139.617 27.9042L134.931 38.6982C132.631 38.3162 130.372 38.1889 128.072 37.8923L136.294 19.2679L128.836 0.178711H135.739L139.914 10.8441L144.389 0.178711H151.375L143.28 19.521ZM123.386 0.178711H117.122V37.089C119.168 37.2164 121.297 37.3003 123.386 37.5536V0.178711ZM111.711 36.6652C106.003 36.2845 100.293 35.9473 94.4559 35.8186V0.178874H100.846V29.8085C104.511 29.8926 108.174 30.1879 111.711 30.3572V36.6652ZM87.6376 14.6137V20.9622H78.9038V35.3959H72.5995V0.178711H90.4939V6.52727H78.9051V14.6138H87.6389L87.6376 14.6137ZM61.8614 6.52727V35.7345C59.7304 35.7345 57.5587 35.7345 55.4698 35.8186V6.52727H48.8657V0.178711H68.5064V6.52727H61.8614ZM41.9642 21.2996C39.1528 21.2996 35.8288 21.2996 33.4429 21.4283V30.8664C37.1922 30.6118 40.9415 30.3165 44.733 30.1892V36.2845L27.0527 37.6823V0.178711H44.7318V6.52727H33.4428V15.0782C35.9146 15.0782 39.7062 14.951 41.9639 14.951V21.3009L41.9642 21.2996ZM6.55677 17.7439V39.924C4.2581 40.1786 2.2116 40.4753 0.0396729 40.8139V0.178711H6.13276L14.4401 23.2489V0.178711H20.8316V38.1889C18.5737 38.5709 16.2724 38.6982 13.8442 39.0355L6.55677 17.7439Z" fill="#CFCFDE"/>
</svg>
