<svg width="91" height="90" viewBox="0 0 91 90" fill="none" xmlns="http://www.w3.org/2000/svg">
<rect width="91" height="90" rx="20" fill="#FFF2F2"/>
<path d="M45.5 25C34.1956 25 25 34.1965 25 45.5C25 56.8035 34.1956 66 45.5 66C56.8044 66 66 56.8035 66 45.5C66 34.1965 56.8044 25 45.5 25ZM45.5 64.2917C35.1382 64.2917 26.7083 55.8618 26.7083 45.5C26.7083 35.1382 35.1382 26.7083 45.5 26.7083C55.8618 26.7083 64.2917 35.1382 64.2917 45.5C64.2917 55.8618 55.8618 64.2917 45.5 64.2917Z" fill="#FF4E4E"/>
<path d="M41.2285 33.5417H36.1035C34.6905 33.5417 33.541 34.6912 33.541 36.1042V41.2292C33.541 42.6423 34.6905 43.7917 36.1035 43.7917H41.2285C42.6416 43.7917 43.791 42.6423 43.791 41.2292V36.1042C43.791 34.6912 42.6416 33.5417 41.2285 33.5417ZM42.0826 41.2292C42.0826 41.7005 41.6989 42.0834 41.2284 42.0834H36.1034C35.633 42.0834 35.2492 41.7006 35.2492 41.2292V36.1042C35.2492 35.633 35.633 35.2501 36.1034 35.2501H41.2284C41.6989 35.2501 42.0826 35.6329 42.0826 36.1042V41.2292Z" fill="#FF4E4E"/>
<path d="M54.8965 33.5417H49.7715C48.3584 33.5417 47.209 34.6912 47.209 36.1042V41.2292C47.209 42.6423 48.3584 43.7917 49.7715 43.7917H54.8965C56.3095 43.7917 57.459 42.6423 57.459 41.2292V36.1042C57.459 34.6912 56.3095 33.5417 54.8965 33.5417ZM55.7507 41.2292C55.7507 41.7005 55.3669 42.0834 54.8965 42.0834H49.7715C49.301 42.0834 48.9173 41.7006 48.9173 41.2292V36.1042C48.9173 35.633 49.301 35.2501 49.7715 35.2501H54.8965C55.3669 35.2501 55.7507 35.6329 55.7507 36.1042V41.2292Z" fill="#FF4E4E"/>
<path d="M41.2285 47.2083H36.1035C34.6905 47.2083 33.541 48.3577 33.541 49.7708V54.8958C33.541 56.3088 34.6905 57.4583 36.1035 57.4583H41.2285C42.6416 57.4583 43.791 56.3088 43.791 54.8958V49.7708C43.791 48.3578 42.6416 47.2083 41.2285 47.2083ZM42.0826 54.8958C42.0826 55.367 41.6989 55.7499 41.2284 55.7499H36.1034C35.633 55.7499 35.2492 55.3671 35.2492 54.8958V49.7708C35.2492 49.2995 35.633 48.9166 36.1034 48.9166H41.2284C41.6989 48.9166 42.0826 49.2994 42.0826 49.7708V54.8958Z" fill="#FF4E4E"/>
<path d="M54.8965 47.2083H49.7715C48.3584 47.2083 47.209 48.3577 47.209 49.7708V54.8958C47.209 56.3088 48.3584 57.4583 49.7715 57.4583H54.8965C56.3095 57.4583 57.459 56.3088 57.459 54.8958V49.7708C57.459 48.3578 56.3095 47.2083 54.8965 47.2083ZM55.7507 54.8958C55.7507 55.367 55.3669 55.7499 54.8965 55.7499H49.7715C49.301 55.7499 48.9173 55.3671 48.9173 54.8958V49.7708C48.9173 49.2995 49.301 48.9166 49.7715 48.9166H54.8965C55.3669 48.9166 55.7507 49.2994 55.7507 49.7708V54.8958Z" fill="#FF4E4E"/>
</svg>
