<svg width="91" height="90" viewBox="0 0 91 90" fill="none" xmlns="http://www.w3.org/2000/svg">
<rect width="91" height="90" rx="20" fill="#FDFBDA"/>
<g clip-path="url(#clip0_44_92)">
<path d="M65.9774 50.2847C65.8728 47.8783 65.4543 45.2103 64.8266 42.6993C64.1988 40.2929 63.4141 38.0435 62.4725 36.3171C58.8106 29.8827 54.8348 30.8766 50.0744 32.1321C48.5573 32.4983 46.9356 32.9168 45.2616 33.0737H44.7384C43.0644 32.9168 41.4427 32.4983 39.9257 32.1321C35.1652 30.9289 31.1894 29.8827 27.5275 36.3694C26.5859 38.0958 25.7489 40.3452 25.1735 42.7516C24.5457 45.2626 24.1272 47.9306 24.0226 50.337C23.9179 53.0049 24.1795 54.9405 24.755 56.3006C25.3304 57.5561 26.1674 58.3408 27.266 58.6547C28.2599 58.9163 29.4108 58.8117 30.614 58.2885C32.6542 57.4515 35.0083 55.6729 37.31 53.5281C38.9317 51.9587 41.9659 51.174 45 51.174C48.0342 51.174 51.0683 51.9587 52.69 53.5281C54.9918 55.6729 57.3458 57.4515 59.386 58.2885C60.5892 58.7593 61.7401 58.9163 62.7341 58.6547C63.7803 58.3408 64.6696 57.6085 65.2451 56.2483C65.8205 54.9405 66.0821 53.0049 65.9774 50.2847ZM63.4664 55.5159C63.1526 56.2483 62.7341 56.6668 62.2109 56.8238C61.6355 56.9807 60.9031 56.8761 60.0661 56.5622C58.2352 55.8298 56.0903 54.2081 53.9978 52.2202C52.0099 50.2324 48.505 49.2384 45 49.2384C41.4951 49.2384 37.9901 50.2324 35.9499 52.1156C33.8051 54.1035 31.6602 55.7775 29.8816 56.4576C29.0446 56.7715 28.3122 56.9284 27.7368 56.7191C27.2137 56.5622 26.7952 56.1437 26.4813 55.4113C26.0628 54.4174 25.8535 52.7957 25.9581 50.3893C26.0628 48.1398 26.429 45.5765 27.0567 43.1701C27.6322 40.9207 28.3645 38.8281 29.2539 37.2588C32.1311 32.0798 35.4791 32.9168 39.4549 33.9631C41.0765 34.3816 42.7506 34.8001 44.5815 34.957C44.6338 34.957 44.6338 34.957 44.6861 34.957H45.2616C45.3139 34.957 45.3139 34.957 45.3662 34.957C47.2495 34.8001 48.9235 34.3816 50.5452 33.9631C54.5209 32.9691 57.869 32.0798 60.7462 37.2588C61.6355 38.8281 62.3679 40.8683 62.9433 43.1701C63.5187 45.5765 63.9372 48.0875 64.0419 50.3893C64.1465 52.7957 63.9372 54.4174 63.4664 55.5159Z" fill="#B0A600"/>
<path d="M40.1866 40.0838C39.6635 39.613 39.0357 39.2468 38.3033 39.1945C38.251 38.5144 37.9371 37.8343 37.4663 37.3635L37.414 37.3112C36.8386 36.7358 36.1062 36.4219 35.2692 36.4219C34.4322 36.4219 33.6475 36.7881 33.1244 37.3112C32.6536 37.782 32.2874 38.4621 32.235 39.1945C31.5027 39.2468 30.8749 39.5606 30.3518 40.0315L30.2995 40.0838C29.724 40.6592 29.4102 41.3916 29.4102 42.2286C29.4102 43.0656 29.7763 43.8503 30.2995 44.3734C30.8226 44.8966 31.4504 45.2104 32.235 45.2627C32.2874 45.9951 32.6012 46.6752 33.1244 47.146C33.6998 47.7214 34.4322 48.0353 35.2692 48.0353C36.1062 48.0353 36.8909 47.6691 37.414 47.146C37.8848 46.6229 38.251 45.9951 38.3033 45.2627C39.0357 45.2104 39.7158 44.8966 40.1866 44.3734C40.762 43.798 41.0759 43.0656 41.0759 42.2286C41.0759 41.3916 40.7097 40.6069 40.1866 40.0838ZM38.8788 43.0133C38.6695 43.2225 38.408 43.3272 38.0941 43.3272H37.3617C36.8386 43.3272 36.3678 43.7457 36.3678 44.3211V45.0012C36.3678 45.3151 36.2631 45.5766 36.0539 45.7859C35.8446 45.9951 35.5831 46.0997 35.2692 46.0997C34.9553 46.0997 34.6937 45.9951 34.4845 45.7859C34.2752 45.5766 34.1706 45.3151 34.1706 45.0012V44.2688C34.1706 43.7457 33.7521 43.2749 33.1767 43.2749H32.4443C32.1304 43.2749 31.8689 43.1702 31.6596 42.961C31.5027 42.804 31.3457 42.5425 31.3457 42.2286C31.3457 41.9147 31.4504 41.6532 31.6596 41.4439C31.6596 41.4439 31.6596 41.4439 31.7119 41.3916C31.9212 41.2347 32.1827 41.13 32.4443 41.13H33.1767C33.6998 41.13 34.1706 40.7115 34.1706 40.1361V39.4037C34.1706 39.0898 34.2752 38.8283 34.4845 38.619C34.6937 38.4098 34.9553 38.3051 35.2692 38.3051C35.5831 38.3051 35.8446 38.4098 36.0539 38.619C36.0539 38.619 36.0539 38.619 36.1062 38.6713C36.2631 38.8806 36.3678 39.1421 36.3678 39.4037V40.1361C36.3678 40.6592 36.7863 41.13 37.3617 41.13H38.0941C38.408 41.13 38.6695 41.2347 38.8788 41.4439C39.088 41.6532 39.1927 41.9147 39.1927 42.2286C39.1927 42.5425 39.088 42.804 38.8788 43.0133Z" fill="#B0A600"/>
<path d="M54.1024 40.3452C55.1136 40.3452 55.9334 39.5255 55.9334 38.5143C55.9334 37.5031 55.1136 36.6833 54.1024 36.6833C53.0912 36.6833 52.2715 37.5031 52.2715 38.5143C52.2715 39.5255 53.0912 40.3452 54.1024 40.3452Z" fill="#B0A600"/>
<path d="M54.1024 47.7737C55.1136 47.7737 55.9334 46.954 55.9334 45.9428C55.9334 44.9316 55.1136 44.1118 54.1024 44.1118C53.0912 44.1118 52.2715 44.9316 52.2715 45.9428C52.2715 46.954 53.0912 47.7737 54.1024 47.7737Z" fill="#B0A600"/>
<path d="M50.3876 44.0594C51.3988 44.0594 52.2185 43.2396 52.2185 42.2284C52.2185 41.2172 51.3988 40.3975 50.3876 40.3975C49.3764 40.3975 48.5566 41.2172 48.5566 42.2284C48.5566 43.2396 49.3764 44.0594 50.3876 44.0594Z" fill="#B0A600"/>
<path d="M57.8173 44.0594C58.8285 44.0594 59.6482 43.2396 59.6482 42.2284C59.6482 41.2172 58.8285 40.3975 57.8173 40.3975C56.8061 40.3975 55.9863 41.2172 55.9863 42.2284C55.9863 43.2396 56.8061 44.0594 57.8173 44.0594Z" fill="#B0A600"/>
</g>
<defs>
<clipPath id="clip0_44_92">
<rect width="42" height="42" fill="white" transform="translate(24 24)"/>
</clipPath>
</defs>
</svg>
