<svg width="68" height="95" viewBox="0 0 68 95" fill="none" xmlns="http://www.w3.org/2000/svg">
<g clip-path="url(#clip0_2_2166)">
<path d="M64.9697 0H2.32971C1.04143 0 0 1.02822 0 2.30017V92.7074C0 93.9794 1.04143 95.0076 2.32971 95.0076H64.9697C66.258 95.0076 67.2994 93.9794 67.2994 92.7074V2.30017C67.2917 1.02822 66.2502 0 64.9697 0Z" fill="url(#paint0_linear_2_2166)"/>
<path d="M60.8578 4.09766H6.43353C5.18381 4.09766 4.16553 5.10303 4.16553 6.34451V81.0923C4.16553 82.3338 5.18381 83.3316 6.43353 83.3316H60.8578C62.1152 83.3316 63.1258 82.3262 63.1258 81.0923V6.34451C63.1258 5.10303 62.1152 4.09766 60.8578 4.09766Z" fill="white"/>
<path d="M44.7738 39.6361H22.5258C21.5076 39.6361 20.6821 38.8211 20.6821 37.8158V15.8423C20.6821 14.8369 21.5076 14.022 22.5258 14.022H44.7738C45.7921 14.022 46.6175 14.8369 46.6175 15.8423V37.8081C46.6175 38.8135 45.7921 39.6361 44.7738 39.6361Z" fill="url(#paint1_linear_2_2166)"/>
<path d="M33.6498 92.5476C35.5414 92.5476 37.0749 91.0335 37.0749 89.1659C37.0749 87.2982 35.5414 85.7842 33.6498 85.7842C31.7581 85.7842 30.2246 87.2982 30.2246 89.1659C30.2246 91.0335 31.7581 92.5476 33.6498 92.5476Z" fill="white"/>
<path d="M53.0358 51.0149H14.2561C13.2764 51.0149 12.4741 50.2228 12.4741 49.2555C12.4741 48.2882 13.2764 47.4961 14.2561 47.4961H53.0281C54.0078 47.4961 54.8101 48.2882 54.8101 49.2555C54.8101 50.2228 54.0155 51.0149 53.0358 51.0149Z" fill="url(#paint2_linear_2_2166)"/>
<path opacity="0.6" d="M46.4711 60.7639H13.6082C12.9834 60.7639 12.4819 60.2612 12.4819 59.6518V59.53C12.4819 58.913 12.9911 58.418 13.6082 58.418H46.4711C47.0959 58.418 47.5973 58.9207 47.5973 59.53V59.6518C47.6051 60.2612 47.0959 60.7639 46.4711 60.7639Z" fill="url(#paint3_linear_2_2166)"/>
<path opacity="0.3" d="M40.2147 66.9563H13.5001C12.937 66.9563 12.4741 66.4993 12.4741 65.9433V65.6082C12.4741 65.0522 12.937 64.5952 13.5001 64.5952H40.207C40.7701 64.5952 41.233 65.0522 41.233 65.6082V65.9433C41.233 66.4993 40.7701 66.9563 40.2147 66.9563Z" fill="url(#paint4_linear_2_2166)"/>
<path opacity="0.6" d="M43.5782 72.6916H13.5619C12.9679 72.6916 12.4819 72.2117 12.4819 71.6253V71.412C12.4819 70.8255 12.9679 70.3457 13.5619 70.3457H43.5782C44.1722 70.3457 44.6582 70.8255 44.6582 71.412V71.6253C44.6582 72.2041 44.1722 72.6916 43.5782 72.6916Z" fill="url(#paint5_linear_2_2166)"/>
<path d="M33.7165 26.1206C35.9441 26.1206 37.7497 24.3139 37.7497 22.0852C37.7497 19.8564 35.9441 18.0498 33.7165 18.0498C31.4889 18.0498 29.6832 19.8564 29.6832 22.0852C29.6832 24.3139 31.4804 26.1206 33.7165 26.1206ZM33.7165 28.1383C31.0248 28.1383 25.6499 29.489 25.6499 32.1737V33.1867C25.6499 33.7439 26.1055 34.1998 26.6624 34.1998H40.7874C41.3443 34.1998 41.7999 33.7439 41.7999 33.1867V32.1737C41.783 29.4975 36.4081 28.1383 33.7165 28.1383Z" fill="white"/>
</g>
<defs>
<linearGradient id="paint0_linear_2_2166" x1="4.07698" y1="45.0301" x2="67.3445" y2="50.4539" gradientUnits="userSpaceOnUse">
<stop stop-color="#6CBCFC"/>
<stop offset="1" stop-color="#458DFC"/>
</linearGradient>
<linearGradient id="paint1_linear_2_2166" x1="18.6709" y1="19.2924" x2="48.4656" y2="34.6686" gradientUnits="userSpaceOnUse">
<stop stop-color="#B0F4FF"/>
<stop offset="0.0856277" stop-color="#A3F0FE"/>
<stop offset="0.2972" stop-color="#8AE7FD"/>
<stop offset="0.5161" stop-color="#77E1FD"/>
<stop offset="0.7451" stop-color="#6DDDFC"/>
<stop offset="1" stop-color="#69DCFC"/>
</linearGradient>
<linearGradient id="paint2_linear_2_2166" x1="54.8138" y1="49.2569" x2="12.4814" y2="49.2569" gradientUnits="userSpaceOnUse">
<stop stop-color="#6CBCFC"/>
<stop offset="1" stop-color="#458DFC"/>
</linearGradient>
<linearGradient id="paint3_linear_2_2166" x1="47.6028" y1="59.5875" x2="12.4815" y2="59.5875" gradientUnits="userSpaceOnUse">
<stop stop-color="#6CBCFC"/>
<stop offset="1" stop-color="#458DFC"/>
</linearGradient>
<linearGradient id="paint4_linear_2_2166" x1="41.2338" y1="65.78" x2="12.4814" y2="65.78" gradientUnits="userSpaceOnUse">
<stop stop-color="#6CBCFC"/>
<stop offset="1" stop-color="#458DFC"/>
</linearGradient>
<linearGradient id="paint5_linear_2_2166" x1="44.6576" y1="71.5125" x2="12.4815" y2="71.5125" gradientUnits="userSpaceOnUse">
<stop stop-color="#6CBCFC"/>
<stop offset="1" stop-color="#458DFC"/>
</linearGradient>
<clipPath id="clip0_2_2166">
<rect width="67.2917" height="95" fill="white"/>
</clipPath>
</defs>
</svg>
