<svg width="62" height="85" viewBox="0 0 62 85" fill="none" xmlns="http://www.w3.org/2000/svg">
<g clip-path="url(#clip0_2_2187)">
<path d="M61.8575 26.4808L61.6658 66.2817L61.6339 73.9799C61.6019 80.0969 55.7883 85.0321 48.6331 85.0002L12.8891 84.8405C5.74985 84.7925 -0.0318111 79.8095 0.000131725 73.6764L0.223732 26.1774C0.239703 21.2262 4.07285 17.0417 9.31148 15.6522L9.32745 13.0968V11.7871L52.8815 11.9947L52.8656 15.8598C58.0882 17.3132 61.8735 21.5137 61.8575 26.4808Z" fill="url(#paint0_linear_2_2187)"/>
<path d="M56.1239 1.77283V2.1242L56.092 6.27678L56.06 10.3495V10.8446C56.06 11.6112 55.4212 12.2341 54.6545 12.2341H54.3191L52.2109 12.2182L49.895 12.2022L47.7868 12.1862L45.471 12.1702L43.3308 12.1383L41.0149 12.1223L38.9067 12.1064L36.5749 12.0904L34.4507 12.0744L32.1348 12.0584L30.0266 12.0265L27.7107 12.0105L25.6025 11.9945L23.2707 11.9786L21.1465 11.9626L18.8466 11.9466L16.7383 11.9307L14.4225 11.9147L12.2983 11.8987L9.98242 11.8828L7.85822 11.8668H7.52282C6.75619 11.8668 6.1333 11.2279 6.1333 10.4613V10.4453V10.0939L6.19719 1.88463V1.38952C6.19719 0.622886 6.83604 0 7.61864 0H7.95404L12.3941 0.0319429L16.8342 0.0638858L18.9584 0.0798572L21.2742 0.0958286L23.3825 0.1118L27.8065 0.159714L30.1224 0.175686L32.2306 0.191657L34.5465 0.207629L36.6547 0.2236L38.9706 0.239572L41.0788 0.255543L43.3947 0.271514L45.5029 0.287486L47.8507 0.319429L49.9589 0.3354L52.2748 0.351372L54.399 0.367343H54.7344C55.517 0.383315 56.1239 1.0062 56.1239 1.77283Z" fill="url(#paint1_linear_2_2187)"/>
<path d="M56.1239 2.14031L56.092 6.27691L56.06 10.3496L54.1594 10.3337L51.6359 10.3177L49.3201 10.3017H46.7806L44.4648 10.2857L41.9413 10.2698L39.6254 10.2538H37.0859L34.7701 10.2378L32.2306 10.2219L29.9307 10.2059H27.3913L25.0754 10.1899L22.536 10.1739L20.2201 10.158H17.6966L15.3808 10.142L12.8413 10.126L10.5254 10.1101H8.00196L6.1333 10.0941L6.19719 1.88477L10.6372 1.90074L15.4766 1.93268L17.7925 1.94865L20.3319 1.96462H22.6478L27.4871 1.99657L30.0266 2.01254H32.3424L34.8819 2.02851L37.1818 2.04448L39.7212 2.06045H42.0371L44.5766 2.07642L46.8764 2.09239L49.4159 2.10837H51.7318L54.2712 2.12434L56.1239 2.14031Z" fill="url(#paint2_linear_2_2187)"/>
<path d="M61.8105 34.8842L0.176758 34.5928L0.0475233 61.9199L61.6813 62.2114L61.8105 34.8842Z" fill="#F7F9FC"/>
<path d="M61.8218 34.8842L0.187988 34.5928L0.164732 39.512L61.7985 39.8034L61.8218 34.8842Z" fill="#FBFCF7"/>
<path d="M24.2129 45.5805L20.2361 45.5645L20.252 41.5716L14.7738 41.5557L14.7579 45.5326L10.781 45.5166L10.749 50.9788L14.7259 50.9948L14.7099 54.9876L20.1881 55.0036L20.2041 51.0267L24.181 51.0427L24.2129 45.5805Z" fill="url(#paint3_linear_2_2187)"/>
<path d="M51.2364 46.9059L31.5276 46.8101C31.0006 46.8101 30.5693 46.3788 30.5693 45.8518V45.4046C30.5693 44.8775 31.0006 44.4463 31.5276 44.4463L51.2364 44.5421C51.7634 44.5421 52.1947 44.9733 52.1947 45.5004V45.9476C52.1947 46.4747 51.7634 46.9059 51.2364 46.9059Z" fill="url(#paint4_linear_2_2187)"/>
<path opacity="0.5" d="M51.2208 52.7677L31.512 52.6719C30.9849 52.6719 30.5537 52.2406 30.5537 51.7136V51.2664C30.5537 50.7393 30.9849 50.3081 31.512 50.3081L51.2208 50.4039C51.7478 50.4039 52.179 50.8352 52.179 51.3622V51.8094C52.179 52.3365 51.7478 52.7677 51.2208 52.7677Z" fill="url(#paint5_linear_2_2187)"/>
<path opacity="0.08" d="M6.1333 1.77267V2.12405L6.16524 6.27662L6.19719 10.3334V10.8285C6.19719 11.5951 6.83604 12.218 7.60267 12.218H7.93807L10.0623 12.202L12.3781 12.1861L14.4864 12.1701L16.8022 12.1541L18.9105 12.1381L21.2263 12.1222L23.3345 12.1062L25.6504 12.0902L27.7746 12.0743L30.0905 12.0583L32.1987 12.0423L34.5145 12.0263L36.6228 12.0104L38.9386 11.9944L41.0628 11.9784L43.3787 11.9625L45.4869 11.9465L47.8028 11.9305L49.911 11.9145L52.2269 11.8986L54.3511 11.8826H54.6865C55.4531 11.8826 56.076 11.2437 56.076 10.4771V10.4611V10.1098C31.3682 11.1799 7.52282 0.367188 7.52282 0.367188C6.75619 0.383159 6.1333 1.00605 6.1333 1.77267Z" fill="#1A6FB5"/>
</g>
<defs>
<linearGradient id="paint0_linear_2_2187" x1="0.000131398" y1="11.3335" x2="57.139" y2="90.1946" gradientUnits="userSpaceOnUse">
<stop stop-color="#6CBCFC"/>
<stop offset="1" stop-color="#458DFC"/>
</linearGradient>
<linearGradient id="paint1_linear_2_2187" x1="-629.93" y1="-39.931" x2="-27.6038" y2="2.02206" gradientUnits="userSpaceOnUse">
<stop stop-color="#B0F4FF"/>
<stop offset="0.0525488" stop-color="#A9F2FF"/>
<stop offset="0.2879" stop-color="#8DE8FE"/>
<stop offset="0.5247" stop-color="#79E1FD"/>
<stop offset="0.7618" stop-color="#6DDDFC"/>
<stop offset="1" stop-color="#69DCFC"/>
</linearGradient>
<linearGradient id="paint2_linear_2_2187" x1="6.1402" y1="6.11325" x2="56.126" y2="6.11325" gradientUnits="userSpaceOnUse">
<stop stop-color="#B0F4FF"/>
<stop offset="0.0525488" stop-color="#A9F2FF"/>
<stop offset="0.2879" stop-color="#8DE8FE"/>
<stop offset="0.5247" stop-color="#79E1FD"/>
<stop offset="0.7618" stop-color="#6DDDFC"/>
<stop offset="1" stop-color="#69DCFC"/>
</linearGradient>
<linearGradient id="paint3_linear_2_2187" x1="21.9782" y1="43.0955" x2="12.5977" y2="53.9126" gradientUnits="userSpaceOnUse">
<stop stop-color="#6CBCFC"/>
<stop offset="1" stop-color="#458DFC"/>
</linearGradient>
<linearGradient id="paint4_linear_2_2187" x1="52.3847" y1="45.6709" x2="28.8866" y2="45.6709" gradientUnits="userSpaceOnUse">
<stop stop-color="#6CBCFC"/>
<stop offset="1" stop-color="#458DFC"/>
</linearGradient>
<linearGradient id="paint5_linear_2_2187" x1="30.5522" y1="51.5324" x2="52.1794" y2="51.5324" gradientUnits="userSpaceOnUse">
<stop stop-color="#6CBCFC"/>
<stop offset="1" stop-color="#458DFC"/>
</linearGradient>
<clipPath id="clip0_2_2187">
<rect width="61.8574" height="85" fill="white"/>
</clipPath>
</defs>
</svg>
