<svg width="92" height="90" viewBox="0 0 92 90" fill="none" xmlns="http://www.w3.org/2000/svg">
<g clip-path="url(#clip0_2_2154)">
<path d="M56.2158 43.3154L47.1379 51.9804L8.80357 88.5663C7.79717 89.5291 6.50615 90.0105 5.21512 90.0105C3.80211 90.0105 2.3891 89.4369 1.36237 88.3C-0.660574 86.0672 -0.396269 82.5745 1.93164 80.6694L47.1379 43.8275L52.119 39.7715L56.2158 43.3154Z" fill="url(#paint0_linear_2_2154)"/>
<path d="M46.7414 52.4206L37.8058 60.9422L36.9824 52.185L41.8721 48.2007L46.7414 52.4206Z" fill="#3A81D6" fill-opacity="0.8"/>
<path d="M91.9782 29.9078C91.9782 46.4288 78.6817 59.8259 62.2948 59.8259C51.9666 59.8259 42.8684 54.5101 37.5518 46.4391C34.431 41.7071 32.6113 36.0225 32.6113 29.9078C32.6113 13.3868 45.9079 0 62.2948 0C69.6953 0 76.4554 2.72448 81.65 7.23114C87.973 12.7211 91.9782 20.8433 91.9782 29.9078Z" fill="url(#paint1_linear_2_2154)"/>
<path d="M62.2946 53.2094C75.0671 53.2094 85.4213 42.777 85.4213 29.9079C85.4213 17.0389 75.0671 6.60645 62.2946 6.60645C49.5221 6.60645 39.168 17.0389 39.168 29.9079C39.168 42.777 49.5221 53.2094 62.2946 53.2094Z" fill="white"/>
<path opacity="0.06" d="M91.9782 29.9076C91.9782 46.4286 78.6816 59.8257 62.2947 59.8257C51.9665 59.8257 42.8683 54.5099 37.5518 46.4389C71.027 43.6939 79.8507 15.1176 81.6601 7.23096C87.9729 12.7209 91.9782 20.8431 91.9782 29.9076Z" fill="#1A6FB5" fill-opacity="0.5"/>
<path d="M62.2944 29.9592C64.9782 29.9592 67.1536 27.7673 67.1536 25.0634C67.1536 22.3594 64.9782 20.1675 62.2944 20.1675C59.6107 20.1675 57.4353 22.3594 57.4353 25.0634C57.4353 27.7673 59.6006 29.9592 62.2944 29.9592ZM62.2944 32.4072C59.0516 32.4072 52.5762 34.0459 52.5762 37.303V38.5321C52.5762 39.2081 53.1251 39.7612 53.796 39.7612H70.8132C71.4841 39.7612 72.0331 39.2081 72.0331 38.5321V37.303C72.0127 34.0562 65.5373 32.4072 62.2944 32.4072Z" fill="url(#paint2_linear_2_2154)"/>
</g>
<defs>
<linearGradient id="paint0_linear_2_2154" x1="5.6749" y1="84.3268" x2="53.9246" y2="40.7925" gradientUnits="userSpaceOnUse">
<stop stop-color="#67C3F3"/>
<stop offset="1" stop-color="#5A98F2"/>
</linearGradient>
<linearGradient id="paint1_linear_2_2154" x1="50.0175" y1="2.11336" x2="72.782" y2="52.9053" gradientUnits="userSpaceOnUse">
<stop stop-color="#67C3F3"/>
<stop offset="1" stop-color="#5A98F2"/>
</linearGradient>
<linearGradient id="paint2_linear_2_2154" x1="55.2685" y1="28.3949" x2="72.9194" y2="36.9392" gradientUnits="userSpaceOnUse">
<stop stop-color="#B0F4FF"/>
<stop offset="0.071077" stop-color="#A6F1FF"/>
<stop offset="0.2937" stop-color="#8BE8FD"/>
<stop offset="0.5209" stop-color="#78E1FD"/>
<stop offset="0.7536" stop-color="#6DDDFC"/>
<stop offset="1" stop-color="#69DCFC"/>
</linearGradient>
<clipPath id="clip0_2_2154">
<rect width="91.978" height="90" fill="white"/>
</clipPath>
</defs>
</svg>
