<svg width="91" height="90" viewBox="0 0 91 90" fill="none" xmlns="http://www.w3.org/2000/svg">
<rect width="91" height="90" rx="20" fill="#E2F3FF"/>
<g clip-path="url(#clip0_44_62)">
<path d="M46.5138 43.487C46.2007 43.1739 45.6938 43.1739 45.3807 43.487C45.0684 43.7993 45.0684 44.3062 45.3807 44.6193C45.6938 44.9316 46.2007 44.9316 46.5138 44.6193C46.8261 44.3062 46.8261 43.7993 46.5138 43.487Z" fill="#0073C6"/>
<path d="M56.7051 33.2946C55.1404 31.73 52.6074 31.7299 51.0426 33.2946C49.4819 34.8552 49.4818 37.3953 51.0428 38.9572C52.604 40.5175 55.1441 40.5181 56.7051 38.9571C58.2697 37.3925 58.27 34.8594 56.7051 33.2946ZM55.5726 37.8245C54.6363 38.761 53.1121 38.761 52.1753 37.8247C51.2387 36.8876 51.2387 35.3634 52.1751 34.4271C53.1138 33.4883 54.6337 33.4882 55.5726 34.4271C56.5114 35.3657 56.5116 36.8857 55.5726 37.8245Z" fill="#0073C6"/>
<path d="M65.7648 24.2346C65.6076 24.0774 65.393 23.9922 65.1699 24.0006C64.9888 24.0071 60.6778 24.1803 55.5532 25.9916C51.4468 27.4415 48.0241 29.5174 45.38 32.1616C44.7875 32.7541 44.2109 33.3823 43.6592 34.0351C41.0449 32.4961 38.9499 32.9787 37.6254 33.6874C34.576 35.3194 32.6885 39.7506 32.6885 42.9201C32.6887 43.2439 32.8839 43.536 33.183 43.6599C33.2821 43.701 33.3862 43.7209 33.4893 43.7209C33.6978 43.7209 33.9025 43.6395 34.0557 43.4863C35.6639 41.8781 37.6475 41.9787 38.2955 42.0639L38.576 42.3444C38.0241 43.6576 37.5795 44.9635 37.2534 46.2337C37.1357 46.6933 37.1754 47.1797 37.3504 47.6246C36.5794 47.9799 35.8355 48.5016 35.1879 49.1493C33.1266 51.2107 32.708 56.2343 32.6912 56.4471C32.6728 56.6807 32.7575 56.9107 32.9232 57.0764C33.074 57.2271 33.2779 57.3109 33.4893 57.3109C33.5103 57.3109 33.5314 57.3101 33.5524 57.3084C33.7653 57.2917 38.7891 56.8731 40.8503 54.8119C41.4978 54.1644 42.0194 53.4207 42.3747 52.6498C42.8457 52.835 43.3305 52.8579 43.7665 52.7462C45.036 52.4202 46.3418 51.9757 47.6552 51.4238L47.9356 51.7042C48.0208 52.3523 48.1213 54.3359 46.5132 55.9439C46.2843 56.1729 46.2157 56.5174 46.3397 56.8165C46.4636 57.1158 46.7555 57.3108 47.0795 57.3108C50.2489 57.3108 54.6801 55.4233 56.312 52.3739C57.0208 51.0496 57.5034 48.9546 55.9644 46.3402C56.6168 45.7887 57.2452 45.2122 57.8379 44.6194C60.4821 41.9753 62.5579 38.5525 64.0078 34.4464C65.8191 29.3216 65.9923 25.0105 65.9988 24.8295C66.0068 24.6073 65.922 24.3918 65.7648 24.2346ZM34.4789 41.1977C34.9763 38.7903 36.4212 36.1486 38.3815 35.0995C39.6915 34.3985 41.1233 34.4672 42.6458 35.3005C41.3488 37.0064 40.2212 38.8441 39.2813 40.7848C39.2694 40.7775 39.1252 40.5962 38.8574 40.5359C38.7473 40.511 36.6286 40.0552 34.4789 41.1977ZM39.7179 53.6793C38.6168 54.7804 36.0339 55.3611 34.4013 55.5982C34.6385 53.9656 35.2193 51.3828 36.3203 50.2818C36.9369 49.6652 37.6519 49.1977 38.3705 48.9344L41.0653 51.6292C40.802 52.3478 40.3346 53.0627 39.7179 53.6793ZM43.3686 51.1947C43.1369 51.2541 42.8685 51.1669 42.6689 50.9677C41.6329 49.9317 41.2277 49.5265 41.1005 49.3994C40.8673 49.1662 40.2955 48.5944 39.0324 47.3312C38.8327 47.1311 38.7456 46.8628 38.8048 46.6314C39.0612 45.6325 39.3967 44.6077 39.8046 43.573L46.4267 50.195C45.3918 50.603 44.3671 50.9384 43.3686 51.1947ZM54.9002 51.6182C53.851 53.5784 51.2094 55.0233 48.8021 55.5207C49.5696 54.0763 49.7388 52.2377 49.4584 51.1227C49.3933 50.8638 49.2243 50.7336 49.2149 50.7183C51.1554 49.7784 52.9931 48.6508 54.6991 47.3538C55.5325 48.8764 55.6011 50.3084 54.9002 51.6182ZM56.7056 43.487C55.984 44.2085 55.207 44.9056 54.3962 45.5588C52.4469 47.1283 50.3015 48.4577 48.0125 49.5161L40.4836 41.9873C41.5419 39.6982 42.8714 37.5527 44.4407 35.6037C45.0945 34.7923 45.7915 34.0152 46.5127 33.294C48.8851 30.9216 51.9468 29.0335 55.6153 27.6745L62.3252 34.3844C60.9663 38.0528 59.0782 41.1145 56.7056 43.487ZM62.9013 32.6954L57.3042 27.0983C60.3537 26.1511 63.0066 25.7965 64.3307 25.669C64.2032 26.9934 63.8484 29.6463 62.9013 32.6954Z" fill="#0073C6"/>
<path d="M44.2488 57.076C43.9359 56.7633 43.4288 56.7635 43.1162 57.0762L40.8516 59.3416C40.539 59.6544 40.5391 60.1614 40.8518 60.474C41.1646 60.7867 41.6717 60.7867 41.9843 60.4739L44.2489 58.2085C44.5615 57.8957 44.5615 57.3886 44.2488 57.076Z" fill="#0073C6"/>
<path d="M32.9245 45.7517C32.6119 45.4389 32.1049 45.4389 31.792 45.7515L29.5266 48.0161C29.2139 48.3288 29.2138 48.8358 29.5264 49.1486C29.8389 49.4612 30.3459 49.4615 30.6589 49.1488L32.9243 46.8842C33.2371 46.5715 33.2371 46.0645 32.9245 45.7517Z" fill="#0073C6"/>
<path d="M38.5865 58.2094C38.2739 57.8967 37.7668 57.8967 37.454 58.2093L32.0295 63.633C31.7167 63.9457 31.7167 64.4528 32.0294 64.7655C32.342 65.0782 32.8491 65.0783 33.1619 64.7655L38.5864 59.3419C38.8992 59.0292 38.8992 58.5221 38.5865 58.2094Z" fill="#0073C6"/>
<path d="M32.1802 58.2094C31.8676 57.8967 31.3605 57.8967 31.0478 58.2093L25.6233 63.633C25.3105 63.9457 25.3105 64.4528 25.6232 64.7655C25.9357 65.0782 26.4429 65.0783 26.7557 64.7655L32.1801 59.3419C32.4929 59.0292 32.4929 58.5221 32.1802 58.2094Z" fill="#0073C6"/>
<path d="M31.7907 51.4137C31.478 51.101 30.9709 51.101 30.6582 51.4137L25.2345 56.8382C24.9218 57.151 24.9218 57.658 25.2346 57.9707C25.5473 58.2835 26.0544 58.2835 26.3671 57.9707L31.7907 52.5462C32.1034 52.2334 32.1034 51.7264 31.7907 51.4137Z" fill="#0073C6"/>
<path d="M49.9115 40.0893C49.5987 39.7766 49.0918 39.7766 48.7789 40.0893L47.6466 41.2216C47.3339 41.5343 47.3339 42.0413 47.6466 42.3541C47.9594 42.6668 48.4664 42.6668 48.7792 42.3541L49.9115 41.2218C50.2242 40.9091 50.2242 40.402 49.9115 40.0893Z" fill="#0073C6"/>
</g>
<defs>
<clipPath id="clip0_44_62">
<rect width="41" height="41" fill="white" transform="translate(25 24)"/>
</clipPath>
</defs>
</svg>
