<svg width="91" height="90" viewBox="0 0 91 90" fill="none" xmlns="http://www.w3.org/2000/svg">
<rect width="91" height="90" rx="20" fill="#FFE7FB"/>
<g clip-path="url(#clip0_44_113)">
<path d="M61.2667 36.8104C61.2632 33.6456 58.6982 31.0806 55.5334 31.0771H53.3512C52.9803 27.0178 49.5765 23.9104 45.5001 23.9104C41.4237 23.9104 38.0199 27.0178 37.6489 31.0771H35.4667C32.3002 31.0771 29.7334 33.6438 29.7334 36.8104C29.7334 39.977 32.3002 42.5437 35.4667 42.5437H43.3501V41.1104H35.4667C33.0921 41.1104 31.1667 39.1851 31.1667 36.8104C31.1667 34.4357 33.0921 32.5104 35.4667 32.5104H39.0501V31.7937C39.0501 28.2314 41.9377 25.3437 45.5001 25.3437C49.0624 25.3437 51.9501 28.2314 51.9501 31.7937V32.5104H55.5334C57.9081 32.5104 59.8334 34.4357 59.8334 36.8104C59.8334 39.1851 57.9081 41.1104 55.5334 41.1104H47.6501V42.5437H55.5334C58.6982 42.5402 61.2632 39.9752 61.2667 36.8104Z" fill="#910078"/>
<path d="M58.4001 64.7605V52.5772C58.3987 51.3902 57.437 50.4286 56.2501 50.4272H54.8167V48.8619C55.7598 48.5302 56.3488 47.591 56.2364 46.5975C56.1241 45.604 55.3399 44.8198 54.3464 44.7075C53.353 44.5952 52.4137 45.1841 52.082 46.1272H46.2167V37.1073L47.86 38.7506L48.8734 37.7371L45.5001 34.3638L42.1267 37.7371L43.1401 38.7506L44.7834 37.1073V46.1272H38.9181C38.5864 45.1841 37.6472 44.5948 36.6537 44.7075C35.6602 44.8198 34.876 45.6037 34.7637 46.5971C34.6514 47.5906 35.2403 48.5302 36.1834 48.8616V51.1439H31.8834C30.6964 51.1453 29.7348 52.1069 29.7334 53.2938V61.8939C29.7348 63.0808 30.6964 64.0425 31.8834 64.0439H36.1834V65.4772H34.0334V66.9105H39.7667V65.4772H37.6167V64.0439H41.9167C43.1037 64.0425 44.0653 63.0808 44.0667 61.8939V53.2938C44.0653 52.1069 43.1037 51.1453 41.9167 51.1439H37.6167V48.8619C38.2239 48.6453 38.7015 48.1677 38.9181 47.5605H52.082C52.2986 48.1677 52.7763 48.6453 53.3834 48.8616V50.4272H49.0834C47.8964 50.4286 46.9348 51.3902 46.9334 52.5772V64.7605C46.9348 65.9475 47.8964 66.9091 49.0834 66.9105H56.2501C57.437 66.9091 58.3987 65.9475 58.4001 64.7605ZM42.6334 61.8939C42.633 62.2896 42.3125 62.6102 41.9167 62.6105H31.8834C31.4876 62.6102 31.1671 62.2896 31.1667 61.8939V60.4605H42.6334V61.8939ZM41.9167 52.5772C42.3125 52.5775 42.633 52.8981 42.6334 53.2938V59.0272H31.1667V53.2938C31.1671 52.8981 31.4876 52.5775 31.8834 52.5772H41.9167ZM36.9001 47.5605C36.5043 47.5605 36.1834 47.2396 36.1834 46.8438C36.1834 46.4481 36.5043 46.1272 36.9001 46.1272C37.2958 46.1272 37.6167 46.4481 37.6167 46.8438C37.6164 47.2396 37.2958 47.5602 36.9001 47.5605ZM54.1001 46.1272C54.4958 46.1272 54.8167 46.4481 54.8167 46.8438C54.8167 47.2396 54.4958 47.5605 54.1001 47.5605C53.7043 47.5605 53.3834 47.2396 53.3834 46.8438C53.3838 46.4481 53.7043 46.1275 54.1001 46.1272ZM48.3667 52.5772C48.3671 52.1814 48.6876 51.8609 49.0834 51.8605H56.2501C56.6458 51.8609 56.9664 52.1814 56.9667 52.5772V61.8939H48.3667V52.5772ZM48.3667 64.7605V63.3272H56.9667V64.7605C56.9664 65.1563 56.6458 65.4768 56.2501 65.4772H49.0834C48.6876 65.4768 48.3671 65.1563 48.3667 64.7605Z" fill="#910078"/>
</g>
<defs>
<clipPath id="clip0_44_113">
<rect width="43" height="43" fill="white" transform="translate(24 24)"/>
</clipPath>
</defs>
</svg>
